<svg xmlns="http://www.w3.org/2000/svg" xmlns:xlink="http://www.w3.org/1999/xlink" width="500" zoomAndPan="magnify" viewBox="0 0 375 374.999991" height="500" preserveAspectRatio="xMidYMid meet" version="1.0"><defs><clipPath id="e3296bebb7"><path d="M 0 0.339844 L 375 0.339844 L 375 374.589844 L 0 374.589844 Z M 0 0.339844 " clip-rule="nonzero"/></clipPath></defs><path fill="#f8bc32" d="M 8.269531 367.5625 L 8.269531 290.347656 L 86.195312 211.007812 L 232.125 208.878906 L 311.464844 129.539062 C 311.464844 129.539062 331.304688 123.867188 336.964844 135.914062 C 342.636719 147.960938 344.054688 154.335938 344.054688 154.335938 C 344.054688 154.335938 356.804688 152.207031 363.890625 165.671875 C 370.96875 179.132812 363.890625 191.882812 363.890625 191.882812 L 251.953125 309.472656 L 90.441406 349.148438 L 69.1875 370.402344 Z M 8.269531 367.5625 " fill-opacity="1" fill-rule="nonzero"/><path fill="#f4e042" d="M 187.492188 9.117188 C 233.269531 9.117188 270.375 46.222656 270.375 92 C 270.375 137.78125 233.269531 174.886719 187.492188 174.886719 C 141.710938 174.886719 104.605469 137.78125 104.605469 92 C 104.605469 46.222656 141.722656 9.117188 187.492188 9.117188 Z M 187.492188 9.117188 " fill-opacity="1" fill-rule="nonzero"/><path fill="#ffffff" d="M 187.492188 12.660156 C 163.632812 12.660156 141.945312 21.765625 125.839844 36.613281 C 112.640625 51.296875 104.617188 70.710938 104.617188 92 C 104.617188 113.863281 113.082031 133.738281 126.910156 148.542969 C 116.203125 135.492188 109.789062 118.90625 109.789062 100.859375 C 109.789062 58.804688 144.582031 24.707031 187.5 24.707031 C 208.960938 24.707031 228.382812 33.230469 242.445312 47.011719 C 256.507812 60.792969 265.210938 79.832031 265.210938 100.859375 C 265.210938 118.925781 258.789062 135.519531 248.0625 148.578125 C 261.910156 133.765625 270.382812 113.875 270.382812 92 C 270.382812 70.703125 262.351562 51.285156 249.160156 36.605469 C 233.035156 21.765625 211.351562 12.660156 187.492188 12.660156 Z M 187.492188 12.660156 " fill-opacity="1" fill-rule="evenodd"/><g clip-path="url(#e3296bebb7)"><path fill="#000000" d="M 167.128906 133.785156 L 173.960938 133.785156 L 173.960938 141.566406 C 173.960938 144.894531 176.664062 147.59375 179.992188 147.59375 C 183.320312 147.59375 186.019531 144.894531 186.019531 141.566406 L 186.019531 133.785156 L 189.542969 133.785156 L 189.542969 141.566406 C 189.542969 144.894531 192.242188 147.59375 195.570312 147.59375 C 198.898438 147.59375 201.601562 144.894531 201.601562 141.566406 L 201.601562 133.363281 C 206.679688 132.40625 211.226562 129.847656 214.734375 126.203125 C 219.179688 121.589844 221.945312 115.234375 221.945312 108.277344 C 221.945312 101.320312 219.179688 94.972656 214.734375 90.359375 C 214.210938 89.816406 213.664062 89.300781 213.09375 88.804688 C 213.65625 88.308594 214.210938 87.792969 214.734375 87.25 C 219.179688 82.636719 221.945312 76.28125 221.945312 69.324219 C 221.945312 62.367188 219.179688 56.019531 214.734375 51.40625 C 211.226562 47.761719 206.671875 45.203125 201.601562 44.246094 L 201.601562 36.042969 C 201.601562 32.714844 198.898438 30.015625 195.570312 30.015625 C 192.242188 30.015625 189.542969 32.714844 189.542969 36.042969 L 189.542969 43.824219 L 186.019531 43.824219 L 186.019531 36.042969 C 186.019531 32.714844 183.320312 30.015625 179.992188 30.015625 C 176.664062 30.015625 173.960938 32.714844 173.960938 36.042969 L 173.960938 43.824219 L 167.128906 43.824219 C 163.800781 43.824219 161.101562 46.523438 161.101562 49.851562 L 161.101562 127.757812 C 161.101562 131.085938 163.800781 133.785156 167.128906 133.785156 Z M 173.15625 82.785156 L 173.15625 55.890625 L 179.980469 55.890625 C 179.980469 55.890625 179.980469 55.890625 179.992188 55.890625 C 180 55.890625 179.992188 55.890625 180 55.890625 L 195.570312 55.890625 C 195.570312 55.890625 195.570312 55.890625 195.582031 55.890625 C 195.589844 55.890625 195.582031 55.890625 195.589844 55.890625 L 197.175781 55.890625 C 200.644531 55.890625 203.792969 57.371094 206.089844 59.75 C 208.445312 62.1875 209.90625 65.582031 209.90625 69.34375 C 209.90625 73.09375 208.445312 76.484375 206.089844 78.933594 C 203.804688 81.3125 200.644531 82.796875 197.175781 82.796875 Z M 173.15625 94.832031 L 197.15625 94.832031 C 200.617188 94.832031 203.773438 96.3125 206.070312 98.695312 C 208.425781 101.132812 209.886719 104.535156 209.886719 108.285156 C 209.886719 112.035156 208.425781 115.429688 206.070312 117.875 C 203.785156 120.257812 200.625 121.738281 197.15625 121.738281 L 195.570312 121.738281 C 195.570312 121.738281 195.570312 121.738281 195.5625 121.738281 C 195.554688 121.738281 195.5625 121.738281 195.554688 121.738281 L 180 121.738281 C 180 121.738281 180 121.738281 179.992188 121.738281 C 179.980469 121.738281 179.992188 121.738281 179.980469 121.738281 L 173.15625 121.738281 Z M 374.972656 174.886719 C 374.972656 167.582031 372.347656 160.261719 367.105469 154.617188 L 366.695312 154.15625 L 365.992188 153.484375 C 360.703125 148.390625 353.972656 145.777344 347.203125 145.617188 C 347.007812 143.667969 346.632812 141.746094 346.039062 139.871094 C 344.757812 135.78125 342.535156 131.9375 339.402344 128.582031 L 339 128.132812 L 338.296875 127.449219 C 332.851562 122.199219 325.867188 119.574219 318.890625 119.574219 C 312.074219 119.574219 305.242188 122.085938 299.851562 127.109375 L 299.390625 127.523438 C 275.242188 152.648438 251.042969 177.734375 226.867188 202.832031 L 96.617188 202.945312 C 96.449219 202.917969 96.289062 202.898438 96.121094 202.890625 C 92.070312 202.597656 87.957031 203.199219 84.074219 204.699219 C 80.363281 206.132812 76.894531 208.390625 73.929688 211.457031 L 1.695312 286.476562 C 1.3125 286.871094 1.003906 287.3125 0.757812 287.769531 C 0.757812 287.78125 0.75 287.78125 0.75 287.789062 C 0.664062 287.949219 0.582031 288.117188 0.515625 288.285156 C 0.507812 288.296875 0.507812 288.3125 0.496094 288.324219 C 0.429688 288.492188 0.367188 288.652344 0.308594 288.820312 C 0.300781 288.839844 0.300781 288.859375 0.289062 288.875 C 0.234375 289.046875 0.195312 289.222656 0.160156 289.390625 C 0.160156 289.410156 0.148438 289.429688 0.148438 289.449219 C 0.113281 289.636719 0.0859375 289.824219 0.0664062 290 C 0.0664062 290.011719 0.0664062 290.019531 0.0664062 290.03125 C 0.0390625 290.292969 0.0273438 290.554688 0.0390625 290.816406 L 0.0390625 367.851562 L 0 368.394531 C 0 371.722656 2.699219 374.421875 6.027344 374.421875 L 71.8125 374.421875 L 71.8125 374.394531 C 73.425781 374.394531 75.039062 373.75 76.210938 372.472656 L 92.585938 354.78125 L 243.242188 315.417969 C 248.148438 313.84375 253.078125 310.90625 257.839844 307.1875 L 257.839844 307.15625 C 262.351562 303.640625 266.832031 299.359375 271.050781 294.847656 C 271.078125 294.8125 271.105469 294.78125 271.132812 294.746094 C 271.3125 294.605469 271.480469 294.445312 271.640625 294.285156 L 366.757812 195.511719 C 372.242188 189.8125 375 182.328125 375 174.886719 Z M 308.082031 135.867188 C 311.148438 133.046875 315.019531 131.640625 318.882812 131.640625 C 322.828125 131.640625 326.785156 133.109375 329.867188 136.054688 L 330.675781 136.851562 C 332.523438 138.839844 333.816406 141.089844 334.566406 143.453125 C 335.023438 144.914062 335.277344 146.441406 335.324219 147.988281 C 332.53125 149.226562 329.898438 150.941406 327.542969 153.136719 L 327.085938 153.546875 C 303.910156 177.660156 280.695312 201.734375 257.484375 225.828125 C 256.304688 220.316406 253.621094 215.375 249.898438 211.503906 C 247.40625 208.917969 244.453125 206.808594 241.179688 205.308594 C 263.484375 182.179688 285.863281 159.089844 308.082031 135.867188 Z M 362.945312 174.886719 C 362.945312 179.367188 361.320312 183.828125 358.097656 187.1875 L 262.988281 285.941406 C 262.902344 286.035156 262.828125 286.128906 262.742188 286.222656 C 262.59375 286.355469 262.445312 286.503906 262.292969 286.65625 C 258.507812 290.695312 254.492188 294.539062 250.445312 297.671875 C 246.710938 300.578125 243.046875 302.816406 239.691406 303.921875 L 87.882812 343.578125 C 86.605469 343.90625 85.539062 344.628906 84.757812 345.566406 L 69.214844 362.359375 L 12.027344 362.359375 L 12.027344 293.066406 L 82.585938 219.792969 C 84.289062 218.019531 86.277344 216.726562 88.398438 215.910156 C 90.570312 215.066406 92.925781 214.730469 95.257812 214.898438 C 95.382812 214.90625 95.503906 214.90625 95.617188 214.90625 C 95.867188 214.9375 96.121094 214.964844 96.375 214.964844 L 229.714844 214.84375 L 229.734375 214.871094 C 234.195312 214.871094 238.265625 216.773438 241.21875 219.839844 C 244.246094 222.988281 246.132812 227.328125 246.132812 232.101562 L 246.101562 232.121094 C 246.101562 236.921875 244.226562 241.261719 241.210938 244.390625 C 238.257812 247.457031 234.179688 249.371094 229.707031 249.371094 L 136.894531 249.371094 C 133.566406 249.371094 130.867188 252.070312 130.867188 255.398438 C 130.867188 258.726562 133.566406 261.425781 136.894531 261.425781 L 229.707031 261.425781 C 237.5625 261.425781 244.707031 258.097656 249.871094 252.726562 C 251.792969 250.730469 253.433594 248.460938 254.746094 245.96875 C 281.71875 217.972656 309.066406 190.109375 335.757812 161.882812 C 338.820312 159.0625 342.695312 157.65625 346.566406 157.65625 C 350.523438 157.65625 354.46875 159.125 357.554688 162.070312 L 358.339844 162.847656 C 361.414062 166.1875 362.953125 170.527344 362.953125 174.875 L 362.945312 174.875 Z M 187.5 177.015625 C 236.210938 177.015625 275.710938 137.527344 275.710938 88.804688 C 275.710938 64.449219 265.835938 42.398438 249.871094 26.433594 C 233.914062 10.476562 211.855469 0.605469 187.5 0.605469 C 138.789062 0.605469 99.289062 40.09375 99.289062 88.8125 C 99.289062 137.535156 138.789062 177.015625 187.5 177.015625 Z M 187.5 12.660156 C 208.527344 12.660156 227.570312 21.183594 241.351562 34.964844 C 255.132812 48.746094 263.652344 67.785156 263.652344 88.8125 C 263.652344 130.871094 229.554688 164.96875 187.5 164.96875 C 145.445312 164.96875 111.347656 130.871094 111.347656 88.8125 C 111.347656 46.757812 145.445312 12.660156 187.5 12.660156 Z M 187.5 12.660156 " fill-opacity="1" fill-rule="nonzero"/></g></svg>